HIERARCHY
ROOT Hips
{
    OFFSET   0.000000   0.000000   0.000000
    CHANNELS 6 Xposition Yposition Zposition Zrotation Xrotation Yrotation
    JOINT Chest
    {
        OFFSET   0.000000   8.007240   0.000000
        CHANNELS 3 Zrotation Xrotation Yrotation
        JOINT Chest2
        {
            OFFSET   0.000000  22.077100   0.000000
            CHANNELS 3 Zrotation Xrotation Yrotation
            JOINT Neck
            {
                OFFSET   0.000000  23.254800   0.000000
                CHANNELS 3 Zrotation Xrotation Yrotation
                JOINT Head
                {
                    OFFSET   0.000000  14.370000   1.956600
                    CHANNELS 3 Zrotation Xrotation Yrotation
                    End Site
                    {
                        OFFSET   0.000000  19.566000   0.000000
                    }
                }
            }
            JOINT LeftCollar
            {
                OFFSET   3.911900  19.017000  -0.467064
                CHANNELS 3 Zrotation Xrotation Yrotation
                JOINT LeftShoulder
                {
                    OFFSET  10.383700   0.000000   0.000000
                    CHANNELS 3 Zrotation Xrotation Yrotation
                    JOINT LeftElbow
                    {
                        OFFSET  26.662100   0.001476   0.000517
                        CHANNELS 3 Zrotation Xrotation Yrotation
                        JOINT LeftWrist
                        {
                            OFFSET  28.869000  -0.000025  -0.000106
                            CHANNELS 3 Zrotation Xrotation Yrotation
                            JOINT LeftFinger0
                            {
                                OFFSET   2.044660  -2.323460   3.252850
                                CHANNELS 3 Zrotation Xrotation Yrotation
                                JOINT LeftFinger01
                                {
                                    OFFSET   3.088130   0.000000   0.000000
                                    CHANNELS 3 Zrotation Xrotation Yrotation
                                    JOINT LeftFinger02
                                    {
                                        OFFSET   2.639460   0.000000   0.000000
                                        CHANNELS 3 Zrotation Xrotation Yrotation
                                        End Site
                                        {
                                            OFFSET   2.582190   0.000000   0.000000
                                        }
                                    }
                                }
                            }
                            JOINT LeftFinger1
                            {
                                OFFSET   8.364480   0.000000   3.252850
                                CHANNELS 3 Zrotation Xrotation Yrotation
                                JOINT LeftFinger11
                                {
                                    OFFSET   4.646930   0.000000   0.000000
                                    CHANNELS 3 Zrotation Xrotation Yrotation
                                    JOINT LeftFinger12
                                    {
                                        OFFSET   2.323460   0.000000   0.000000
                                        CHANNELS 3 Zrotation Xrotation Yrotation
                                        End Site
                                        {
                                            OFFSET   2.273050   0.000000   0.000000
                                        }
                                    }
                                }
                            }
                            JOINT LeftFinger2
                            {
                                OFFSET   8.364490   0.000015   1.078090
                                CHANNELS 3 Zrotation Xrotation Yrotation
                                JOINT LeftFinger21
                                {
                                    OFFSET   5.111620   0.000000   0.000000
                                    CHANNELS 3 Zrotation Xrotation Yrotation
                                    JOINT LeftFinger22
                                    {
                                        OFFSET   2.788160   0.000016   0.000000
                                        CHANNELS 3 Zrotation Xrotation Yrotation
                                        End Site
                                        {
                                            OFFSET   2.727660   0.000000   0.000000
                                        }
                                    }
                                }
                            }
                            JOINT LeftFinger3
                            {
                                OFFSET   7.899780   0.000017  -1.078090
                                CHANNELS 3 Zrotation Xrotation Yrotation
                                JOINT LeftFinger31
                                {
                                    OFFSET   4.646930   0.000000   0.000000
                                    CHANNELS 3 Zrotation Xrotation Yrotation
                                    JOINT LeftFinger32
                                    {
                                        OFFSET   2.323470   0.000000   0.000000
                                        CHANNELS 3 Zrotation Xrotation Yrotation
                                        End Site
                                        {
                                            OFFSET   2.273050   0.000000   0.000000
                                        }
                                    }
                                }
                            }
                            JOINT LeftFinger4
                            {
                                OFFSET   7.435090   0.000000  -3.252850
                                CHANNELS 3 Zrotation Xrotation Yrotation
                                JOINT LeftFinger41
                                {
                                    OFFSET   3.717550   0.000000   0.000000
                                    CHANNELS 3 Zrotation Xrotation Yrotation
                                    JOINT LeftFinger42
                                    {
                                        OFFSET   1.858770   0.000000   0.000000
                                        CHANNELS 3 Zrotation Xrotation Yrotation
                                        End Site
                                        {
                                            OFFSET   1.818440   0.000000   0.000000
                                        }
                                    }
                                }
                            }
                        }
                    }
                }
            }
            JOINT RightCollar
            {
                OFFSET  -3.911900  19.017000  -0.467063
                CHANNELS 3 Zrotation Xrotation Yrotation
                JOINT RightShoulder
                {
                    OFFSET -10.383700   0.000019   0.000000
                    CHANNELS 3 Zrotation Xrotation Yrotation
                    JOINT RightElbow
                    {
                        OFFSET -26.662100   0.001175   0.000102
                        CHANNELS 3 Zrotation Xrotation Yrotation
                        JOINT RightWrist
                        {
                            OFFSET -28.869000   0.000016  -0.000079
                            CHANNELS 3 Zrotation Xrotation Yrotation
                            JOINT RightFinger0
                            {
                                OFFSET  -2.044660  -2.323490   3.252850
                                CHANNELS 3 Zrotation Xrotation Yrotation
                                JOINT RightFinger01
                                {
                                    OFFSET  -3.088140   0.000000   0.000000
                                    CHANNELS 3 Zrotation Xrotation Yrotation
                                    JOINT RightFinger02
                                    {
                                        OFFSET  -2.639460   0.000000   0.000000
                                        CHANNELS 3 Zrotation Xrotation Yrotation
                                        End Site
                                        {
                                            OFFSET  -2.582190   0.000000   0.000000
                                        }
                                    }
                                }
                            }
                            JOINT RightFinger1
                            {
                                OFFSET  -8.364480   0.000000   3.252850
                                CHANNELS 3 Zrotation Xrotation Yrotation
                                JOINT RightFinger11
                                {
                                    OFFSET  -4.646930   0.000000   0.000000
                                    CHANNELS 3 Zrotation Xrotation Yrotation
                                    JOINT RightFinger12
                                    {
                                        OFFSET  -2.323470   0.000000   0.000000
                                        CHANNELS 3 Zrotation Xrotation Yrotation
                                        End Site
                                        {
                                            OFFSET  -2.273050   0.000000   0.000000
                                        }
                                    }
                                }
                            }
                            JOINT RightFinger2
                            {
                                OFFSET  -8.364480   0.000000   1.078090
                                CHANNELS 3 Zrotation Xrotation Yrotation
                                JOINT RightFinger21
                                {
                                    OFFSET  -5.111620   0.000000   0.000000
                                    CHANNELS 3 Zrotation Xrotation Yrotation
                                    JOINT RightFinger22
                                    {
                                        OFFSET  -2.788160   0.000000   0.000000
                                        CHANNELS 3 Zrotation Xrotation Yrotation
                                        End Site
                                        {
                                            OFFSET  -2.727660   0.000000   0.000000
                                        }
                                    }
                                }
                            }
                            JOINT RightFinger3
                            {
                                OFFSET  -7.899780   0.000000  -1.078090
                                CHANNELS 3 Zrotation Xrotation Yrotation
                                JOINT RightFinger31
                                {
                                    OFFSET  -4.646930   0.000000   0.000000
                                    CHANNELS 3 Zrotation Xrotation Yrotation
                                    JOINT RightFinger32
                                    {
                                        OFFSET  -2.323470   0.000000   0.000000
                                        CHANNELS 3 Zrotation Xrotation Yrotation
                                        End Site
                                        {
                                            OFFSET  -2.273050   0.000000   0.000000
                                        }
                                    }
                                }
                            }
                            JOINT RightFinger4
                            {
                                OFFSET  -7.435090   0.000000  -3.252850
                                CHANNELS 3 Zrotation Xrotation Yrotation
                                JOINT RightFinger41
                                {
                                    OFFSET  -3.717550   0.000000   0.000000
                                    CHANNELS 3 Zrotation Xrotation Yrotation
                                    JOINT RightFinger42
                                    {
                                        OFFSET  -1.858770   0.000000   0.000000
                                        CHANNELS 3 Zrotation Xrotation Yrotation
                                        End Site
                                        {
                                            OFFSET  -1.818440   0.000000   0.000000
                                        }
                                    }
                                }
                            }
                        }
                    }
                }
            }
        }
    }
    JOINT LeftHip
    {
        OFFSET   9.783040   0.000000   0.000000
        CHANNELS 3 Zrotation Xrotation Yrotation
        JOINT LeftKnee
        {
            OFFSET   0.000032 -41.789100  -0.002222
            CHANNELS 3 Zrotation Xrotation Yrotation
            JOINT LeftAnkle
            {
                OFFSET   0.000087 -41.133200  -0.000135
                CHANNELS 3 Zrotation Xrotation Yrotation
                JOINT LeftToe
                {
                    OFFSET   0.000000  -6.358960  14.674500
                    CHANNELS 3 Zrotation Xrotation Yrotation
                    End Site
                    {
                        OFFSET   0.000000   0.000000   3.913200
                    }
                }
            }
        }
    }
    JOINT RightHip
    {
        OFFSET  -9.783040   0.000000   0.000000
        CHANNELS 3 Zrotation Xrotation Yrotation
        JOINT RightKnee
        {
            OFFSET   0.000047 -41.789100  -0.000896
            CHANNELS 3 Zrotation Xrotation Yrotation
            JOINT RightAnkle
            {
                OFFSET  -0.000117 -41.133300  -0.000248
                CHANNELS 3 Zrotation Xrotation Yrotation
                JOINT RightToe
                {
                    OFFSET   0.000000  -6.358970  14.674500
                    CHANNELS 3 Zrotation Xrotation Yrotation
                    End Site
                    {
                        OFFSET   0.000000   0.000000   3.913200
                    }
                }
            }
        }
    }
}
MOTION
Frames: 4
Frame Time:   0.016667
 -4.160860  89.419500   0.050913  -2.472710 -13.438000  -0.959826   2.231380   9.098630  -1.203010   4.749810  18.140000  -2.823410   5.015780  -2.663610   0.229845   8.289040  -5.277260  19.357000  -3.747450   0.961760  -0.722873 -67.593700  25.062300 -15.027100  -4.333330 -12.102800 -11.276800   5.364630  -7.340710   9.276110  38.129800  22.399300 -62.602800 -15.438500  -0.003098  -0.000757  -2.719220   0.004462   0.002302 -31.613700   6.364930 -10.209800 -26.331400  -0.000450   0.000781 -18.432000   0.000195   0.000509 -28.456300   3.232350  -5.940260 -37.702900   0.006986   0.004033 -25.110100   0.001319   0.006662 -28.460700   0.295156  -0.544464 -35.738400   0.001216  -0.000674 -23.801700   0.001967  -0.000677 -34.644800   0.322543  -0.465041 -51.969100   0.001743  -0.000414 -34.611500   0.002097   0.000260   1.678700  -2.048580   6.719170  54.535000  28.447500  25.039800 -10.392800 -10.604900 102.287000  51.745400 -27.938700  61.813300 -46.432600  26.182200  56.032500  -2.206180   0.006753   0.000332  -6.103090   0.009328   0.003247  31.149100   5.074450   8.326770  25.788100  -0.001139  -0.000106  18.051600  -0.000511   0.002427  72.600300  -0.457894  -0.143413  72.600800  -0.001304  -0.001290  54.450600  -0.001255   0.003921  67.781900  -5.509210  -2.245650  67.889900   0.001063   0.002224  50.917500   0.002403  -0.000841  71.177300  -9.475180  -3.211750 107.165000  -0.000697   0.002644  71.372000   0.000771   0.001283   4.156930  18.382100   2.080400   2.267510   0.049420   6.687770  -4.662020  -3.546120   0.537159  -0.000000   0.000000   0.000000   3.085140  11.780000  -4.102280   2.274070   5.533430  -4.556650  -5.924770  -2.994420  -5.106350   0.000000   0.000000   0.000000
 -4.163110  89.418300   0.089636  -2.461850 -13.414500  -0.916937   2.230740   9.076530  -1.202960   4.747460  18.095900  -2.821660   4.974420  -2.643650   0.228591   8.219690  -5.239960  19.350600  -3.751090   0.962125  -0.755557 -67.581400  25.076300 -15.072600  -4.326290 -12.101000 -11.315900   5.400150  -7.365460   9.306810  38.132500  22.436500 -62.651900 -15.423600  -0.003055  -0.000773  -2.711790   0.004464   0.002304 -31.633200   6.333370 -10.152300 -26.343800  -0.000435   0.000800 -18.440700   0.000090   0.000520 -28.463300   3.198040  -5.876390 -37.732200   0.006904   0.003959 -25.129600   0.001308   0.006604 -28.463700   0.259213  -0.478148 -35.761500   0.001218  -0.000628 -23.817100   0.001967  -0.000691 -34.655000   0.319527  -0.461285 -51.984300   0.001742  -0.000414 -34.621600   0.002097   0.000260   1.687850  -2.057130   6.742390  54.530200  28.495600  25.106300 -10.412200 -10.636900 102.355000  51.787100 -27.869600  61.836600 -46.431300  26.163600  56.009400  -2.148400   0.006873   0.000323  -6.074200   0.009430   0.003276  31.245500   5.077070   8.281230  25.864800  -0.001216  -0.000091  18.105300  -0.000575   0.002481  72.689500  -0.441088  -0.137488  72.690000  -0.001224  -0.001220  54.517400  -0.001200   0.003985  67.828000  -5.505400  -2.238960  67.935500   0.001234   0.002234  50.951800   0.002403  -0.000853  71.177500  -9.475250  -3.211770 107.166000  -0.000712   0.002711  71.372300   0.000732   0.001019   4.152720  18.403300   2.093670   2.267620   0.002598   6.659810  -4.660770  -3.548680   0.515844  -0.000000   0.000000   0.000000   3.091500  11.775200  -4.102870   2.274140   5.547430  -4.563070  -5.931250  -3.021010  -5.146660  -0.000000   0.000000   0.000000
 -4.163810  89.417600   0.130350  -2.449340 -13.386600  -0.872265   2.230040   9.050450  -1.203080   4.744980  18.043800  -2.820670   4.924070  -2.617990   0.225499   8.135600  -5.191600  19.312200  -3.759550   0.962490  -0.792351 -67.566800  25.101300 -15.117900  -4.321500 -12.099400 -11.349400   5.427100  -7.379940   9.330060  38.122600  22.464400 -62.693700 -15.403200  -0.003014  -0.000790  -2.701580   0.004466   0.002305 -31.655900   6.301840 -10.094800 -26.356200  -0.000382   0.000816 -18.449300   0.000000   0.000527 -28.469800   3.163720  -5.812530 -37.763100   0.006823   0.003886 -25.150200   0.001296   0.006547 -28.466700   0.223269  -0.411833 -35.787000   0.001220  -0.000548 -23.834100   0.001967  -0.000696 -34.669000   0.315144  -0.455714 -52.005300   0.001741  -0.000414 -34.635600   0.002097   0.000261   1.700260  -2.068910   6.765260  54.527500  28.547800  25.163500 -10.429700 -10.677200 102.429000  51.854000 -27.751700  61.865600 -46.432200  26.166100  55.997400  -2.132780   0.006995   0.000321  -6.066380   0.009533   0.003312  31.338700   5.079230   8.272240  25.941500  -0.001300  -0.000071  18.159000  -0.000645   0.002517  72.814600  -0.417519  -0.129156  72.815100  -0.001138  -0.001149  54.611200  -0.001137   0.004049  67.874100  -5.501590  -2.232260  67.981200   0.001403   0.002238  50.986000   0.002403  -0.000859  71.177700  -9.475310  -3.211790 107.166000  -0.000717   0.002788  71.372500   0.000704   0.000742   4.148480  18.417100   2.106860   2.265610  -0.026859   6.632920  -4.659510  -3.556990   0.493759   0.000000   0.000000  -0.000000   3.096160  11.768900  -4.105570   2.275820   5.560450  -4.579580  -5.936410  -3.051030  -5.178120  -0.000000   0.000000  -0.000000
 -4.162180  89.417100   0.173348  -2.431890 -13.348600  -0.821579   2.229040   9.015560  -1.205870   4.741970  17.973900  -2.824360   4.865240  -2.583020   0.220067   8.037390  -5.124630  19.218500  -3.770540   0.971866  -0.821842 -67.561600  25.122400 -15.153900  -4.314580 -12.093200 -11.384300   5.442430  -7.385500   9.313060  38.125600  22.468600 -62.689100 -15.395800  -0.002977  -0.000790  -2.697910   0.004463   0.002302 -31.649300   6.331820 -10.145500 -26.355100  -0.000268   0.000824 -18.448600  -0.000058   0.000534 -28.464200   3.188230  -5.857460 -37.789500   0.006740   0.003815 -25.167800   0.001285   0.006495 -28.470200   0.246993  -0.455509 -35.829200   0.001219  -0.000480 -23.862200   0.001969  -0.000705 -34.700600   0.307771  -0.444637 -52.052600   0.001739  -0.000416 -34.667100   0.002097   0.000261   1.715850  -2.072880   6.794360  54.510400  28.600300  25.225200 -10.433600 -10.729200 102.513000  51.913200 -27.624800  61.865200 -46.507400  26.250100  56.019600  -2.199530   0.007120   0.000344  -6.099770   0.009633   0.003352  31.277300   5.077900   8.290810  25.891500  -0.001387  -0.000029  18.124000  -0.000724   0.002515  72.869200  -0.407278  -0.125453  72.869700  -0.001045  -0.001068  54.652100  -0.001085   0.004115  67.826100  -5.508520  -2.241150  67.933700   0.001577   0.002236  50.950400   0.002379  -0.000857  71.069200  -9.469340  -3.229600 107.005000  -0.000699   0.002864  71.265500   0.000692   0.000440   4.147460  18.399400   2.099740   2.259850  -0.012174   6.617890  -4.662020  -3.585360   0.470843  -0.000000   0.000000   0.000000   3.093730  11.759400  -4.110570   2.280710   5.568980  -4.607890  -5.936240  -3.086880  -5.198710  -0.000000   0.000000   0.000000
